<svg 
 xmlns="http://www.w3.org/2000/svg"
 xmlns:xlink="http://www.w3.org/1999/xlink"
 width="102px" height="32px">
<path fill-rule="evenodd"  fill="rgb(198, 155, 110)"
 d="M89.784,-0.000 L87.935,-0.000 L92.698,18.180 L97.464,-0.000 L95.611,-0.000 L92.698,11.126 L89.784,-0.000 ZM102.000,-0.000 L100.135,-0.000 L93.949,20.946 L93.949,31.978 L95.735,31.978 L95.735,21.208 L102.000,-0.000 ZM84.827,-0.000 L82.967,-0.000 L89.231,21.208 L89.231,31.978 L91.018,31.978 L91.018,20.946 L84.827,-0.000 ZM67.963,30.182 L67.963,31.978 L76.318,31.978 C81.430,31.978 84.244,29.011 84.244,23.621 L84.244,8.357 C84.244,2.968 81.430,-0.000 76.318,-0.000 L67.963,-0.000 L67.963,1.796 L76.318,1.796 C80.450,1.796 82.458,3.943 82.458,8.357 L82.458,23.621 C82.458,28.036 80.450,30.182 76.318,30.182 L67.963,30.182 ZM76.232,27.667 C77.736,27.667 79.527,27.002 79.527,23.836 L79.527,8.142 C79.527,4.977 77.736,4.312 76.232,4.312 L72.680,4.312 L72.680,27.667 L76.232,27.667 ZM74.467,25.870 L74.467,6.108 L76.232,6.108 C77.027,6.108 77.741,6.264 77.741,8.142 L77.741,23.836 C77.741,25.715 77.027,25.870 76.232,25.870 L74.467,25.870 ZM49.611,31.978 L51.398,31.978 L51.398,1.796 L55.738,1.796 L60.406,19.198 L62.162,18.964 L62.162,-0.000 L60.375,-0.000 L60.375,12.184 L57.107,-0.000 L49.611,-0.000 L49.611,31.978 ZM53.857,31.978 L55.643,31.978 L55.643,15.987 L59.941,31.978 L66.364,31.978 L66.364,-0.000 L64.578,-0.000 L64.578,30.182 L61.309,30.182 L55.613,8.985 L53.857,9.220 L53.857,31.978 ZM48.526,6.108 L48.526,4.312 L38.592,4.312 L38.592,14.516 L46.808,14.516 L46.854,12.720 L40.378,12.720 L40.378,6.108 L48.526,6.108 ZM48.526,27.667 L48.526,25.870 L40.378,25.870 L40.378,18.828 L46.854,18.828 L46.808,17.031 L38.592,17.031 L38.592,27.667 L48.526,27.667 ZM48.526,31.978 L48.526,30.182 L35.661,30.182 L35.661,1.796 L48.526,1.796 L48.526,-0.000 L33.874,-0.000 L33.874,31.978 L48.526,31.978 ZM26.071,31.957 L27.858,31.957 L27.858,22.629 C27.858,20.596 27.445,17.894 23.877,17.894 L21.354,17.894 L21.354,31.978 L23.141,31.978 L23.141,19.690 L23.877,19.690 C25.162,19.690 26.071,19.901 26.071,22.629 L26.071,31.957 ZM30.788,31.1000 L32.575,31.1000 L32.575,22.759 C32.575,20.696 32.304,17.947 30.251,16.303 C31.766,15.016 32.532,12.974 32.532,10.211 L32.532,7.840 C32.532,2.565 29.954,-0.000 24.649,-0.000 L16.637,-0.000 L16.637,1.796 L24.649,1.796 C28.922,1.796 30.745,3.604 30.745,7.840 L30.745,10.211 C30.745,13.005 29.928,14.692 28.172,15.521 L26.348,16.382 L28.207,17.163 C29.992,17.913 30.788,19.639 30.788,22.759 L30.788,31.1000 ZM24.091,15.378 C26.562,15.378 27.815,14.003 27.815,11.289 L27.815,8.315 C27.815,5.659 26.706,4.312 24.520,4.312 L21.354,4.312 L21.354,15.378 L24.091,15.378 ZM23.141,13.582 L23.141,6.108 L24.520,6.108 C25.374,6.108 26.028,6.271 26.028,8.315 L26.028,11.289 C26.028,13.216 25.347,13.582 24.091,13.582 L23.141,13.582 ZM9.649,31.978 L11.435,31.978 L11.435,6.108 L16.367,6.108 L16.367,4.312 L9.649,4.312 L9.649,31.978 ZM4.932,31.978 L6.718,31.978 L6.718,4.312 L-0.000,4.312 L-0.000,6.108 L4.932,6.108 L4.932,31.978 ZM16.367,1.796 L16.367,-0.000 L-0.000,-0.000 L-0.000,1.796 L16.367,1.796 Z"/>
</svg>